<svg width="22" height="22" viewBox="0 0 22 22" fill="none" xmlns="http://www.w3.org/2000/svg">
<path fill-rule="evenodd" clip-rule="evenodd" d="M12.8626 2.46252C12.3875 0.512492 9.61246 0.512492 9.13744 2.46252C9.06652 2.75555 8.92742 3.02769 8.73146 3.2568C8.53549 3.48591 8.2882 3.66552 8.00971 3.78101C7.73122 3.89649 7.4294 3.9446 7.1288 3.92141C6.82821 3.89822 6.53733 3.80438 6.27985 3.64754C4.5648 2.60253 2.60224 4.56506 3.64727 6.28008C4.32229 7.3876 3.72352 8.83262 2.46348 9.13888C0.512172 9.61263 0.512172 12.3889 2.46348 12.8614C2.75659 12.9324 3.02878 13.0717 3.2579 13.2678C3.48701 13.4639 3.66657 13.7113 3.78195 13.99C3.89733 14.2686 3.94527 14.5706 3.92187 14.8712C3.89846 15.1719 3.80438 15.4628 3.64727 15.7202C2.60224 17.4353 4.5648 19.3978 6.27985 18.3528C6.53729 18.1957 6.82818 18.1016 7.12886 18.0782C7.42954 18.0548 7.73149 18.1027 8.01013 18.2181C8.28877 18.3335 8.53623 18.513 8.73234 18.7421C8.92845 18.9712 9.06768 19.2434 9.13869 19.5365C9.61246 21.4878 12.3888 21.4878 12.8613 19.5365C12.9326 19.2436 13.0719 18.9716 13.2681 18.7426C13.4642 18.5137 13.7116 18.3342 13.9902 18.2189C14.2688 18.1036 14.5706 18.0556 14.8712 18.0788C15.1718 18.1021 15.4627 18.1959 15.7201 18.3528C17.4352 19.3978 19.3978 17.4353 18.3527 15.7202C18.1959 15.4627 18.102 15.1719 18.0788 14.8713C18.0555 14.5707 18.1035 14.2689 18.2189 13.9903C18.3342 13.7118 18.5136 13.4644 18.7426 13.2682C18.9716 13.072 19.2436 12.9327 19.5365 12.8614C21.4878 12.3877 21.4878 9.61138 19.5365 9.13888C19.2434 9.06787 18.9712 8.92864 18.7421 8.73253C18.513 8.53642 18.3334 8.28897 18.2181 8.01033C18.1027 7.7317 18.0547 7.42975 18.0781 7.12908C18.1015 6.82841 18.1956 6.53751 18.3527 6.28008C19.3978 4.56506 17.4352 2.60253 15.7201 3.64754C15.4627 3.80465 15.1718 3.89873 14.8711 3.92213C14.5705 3.94554 14.2685 3.8976 13.9899 3.78222C13.7112 3.66684 13.4638 3.48728 13.2677 3.25817C13.0715 3.02906 12.9323 2.75688 12.8613 2.46377L12.8626 2.46252Z" stroke="#609432" style="stroke:#609432;stroke:color(display-p3 0.3769 0.5817 0.1958);stroke-opacity:1;" stroke-width="2"/>
<path d="M13.2222 11C13.2222 12.2273 12.2273 13.2222 11 13.2222C9.7727 13.2222 8.77778 12.2273 8.77778 11C8.77778 9.7727 9.7727 8.77778 11 8.77778C12.2273 8.77778 13.2222 9.7727 13.2222 11Z" stroke="#609432" style="stroke:#609432;stroke:color(display-p3 0.3769 0.5817 0.1958);stroke-opacity:1;" stroke-width="2"/>
</svg>
